<?xml version="1.0" standalone="no"?>
<!DOCTYPE svg PUBLIC "-//W3C//DTD SVG 20010904//EN"
 "http://www.w3.org/TR/2001/REC-SVG-20010904/DTD/svg10.dtd">
<svg version="1.0" xmlns="http://www.w3.org/2000/svg"
 width="512.000000pt" height="512.000000pt" viewBox="0 0 512.000000 512.000000"
 preserveAspectRatio="xMidYMid meet">
<metadata>
Created by potrace 1.14, written by Peter Selinger 2001-2017
</metadata>
<g transform="translate(0.000000,512.000000) scale(0.100000,-0.100000)"
fill="#000000" stroke="none">
<path d="M0 3130 c0 -1764 2 -1989 15 -1984 9 4 15 0 15 -10 0 -9 5 -16 10
-16 13 0 13 27 0 35 -17 10 -12 38 6 31 16 -6 44 15 44 33 0 17 18 13 29 -7
10 -16 10 -16 11 1 0 20 16 23 23 5 3 -8 6 -6 6 5 1 9 8 17 16 17 8 0 15 7 15
16 0 13 3 14 14 5 10 -8 16 -8 25 2 6 8 8 16 5 20 -6 6 31 20 61 22 12 1 21
10 23 23 2 14 11 22 23 22 23 0 68 42 51 48 -7 2 -12 8 -12 14 0 6 7 7 15 4 9
-3 18 1 22 9 3 10 13 14 27 10 15 -5 17 -4 7 3 -10 8 -6 17 20 45 57 59 74 81
71 95 -2 7 9 12 30 12 25 0 29 3 18 10 -8 5 -10 10 -4 10 5 0 15 -5 22 -12 9
-9 12 -7 12 10 0 12 -4 22 -9 22 -5 0 -8 11 -7 25 1 29 22 34 29 7 3 -12 5
-11 6 6 0 12 7 33 15 45 8 12 17 64 21 116 6 80 10 98 31 120 36 39 30 58 -9
24 -19 -17 -19 -17 -12 32 3 28 8 59 10 71 3 11 -2 29 -10 40 -19 25 -19 44 0
44 17 0 20 16 4 26 -6 3 -8 17 -5 29 4 17 1 25 -11 28 -17 4 -17 5 0 6 21 1
23 21 2 21 -8 0 -15 5 -15 10 0 6 9 10 20 10 11 0 20 5 20 10 0 6 -7 10 -16
10 -12 0 -15 6 -10 24 3 14 1 28 -4 31 -8 5 -7 11 1 21 14 17 14 245 0 254 -5
3 -12 55 -15 116 -3 61 -9 122 -15 135 -12 31 -33 131 -31 144 1 6 2 19 1 30
-2 19 -3 19 -13 -2 -17 -36 -29 -27 -22 17 6 34 4 40 -11 40 -11 0 -15 5 -12
15 4 8 2 17 -3 20 -17 10 -11 35 8 36 10 0 12 3 5 6 -14 5 -18 44 -5 42 19 -3
23 2 11 17 -10 13 -10 17 2 25 11 7 11 9 -3 9 -12 0 -18 -8 -18 -21 0 -11 -4
-17 -10 -14 -5 3 -10 15 -10 26 0 12 -5 19 -13 16 -6 -2 -11 -11 -9 -21 2 -9
-2 -16 -8 -16 -5 0 -10 5 -10 12 0 6 -10 3 -22 -8 -21 -18 -21 -18 -15 0 6 15
3 17 -13 13 -11 -3 -18 -1 -15 3 3 5 -6 22 -20 38 -26 31 -33 48 -14 37 7 -5
8 5 4 32 -5 27 -4 34 4 23 8 -12 11 -11 17 5 5 11 14 26 21 33 7 7 13 21 13
31 0 10 11 24 25 31 l24 13 -20 28 c-12 17 -15 30 -9 34 21 13 9 25 -26 25
-21 0 -33 4 -29 10 3 6 18 10 32 10 21 0 24 2 13 15 -9 11 -9 15 -1 15 7 0 9
5 6 10 -4 6 -15 8 -26 5 -13 -4 -19 -2 -19 9 0 9 5 16 10 16 7 0 7 6 0 20 -9
16 -8 20 5 20 11 0 13 4 8 13 -13 20 -32 99 -33 135 0 17 -5 32 -11 32 -7 0
-5 10 5 25 9 14 14 31 10 37 -5 8 -10 5 -16 -8 -6 -16 -7 -15 -5 6 1 14 8 30
16 36 9 7 12 17 6 30 -8 18 -8 18 -12 1 -5 -20 -34 -19 -41 1 -2 7 5 16 17 19
12 3 21 13 20 22 0 10 -2 11 -6 4 -2 -7 -9 -13 -15 -13 -7 0 -9 17 -6 45 4 33
2 45 -8 45 -21 0 -28 22 -10 32 16 9 16 11 -1 23 -14 11 -16 16 -5 26 18 19
15 29 -8 29 -12 0 -20 7 -20 16 0 10 6 14 15 11 8 -4 17 -2 20 2 3 5 -2 11 -9
14 -15 6 -15 45 -1 152 3 22 1 85 -4 140 -8 91 -7 102 10 121 10 11 19 23 19
27 0 13 -23 7 -36 -10 -12 -16 -14 -14 -12 20 1 20 6 37 10 37 13 0 9 28 -4
33 -10 3 -10 7 -1 19 8 9 14 52 16 102 3 83 2 86 -17 81 -12 -3 -15 -2 -9 1
16 7 17 46 1 62 -8 8 -59 12 -165 12 l-153 0 0 -1990z m275 1370 c3 -5 1 -10
-4 -10 -6 0 -11 5 -11 10 0 6 2 10 4 10 3 0 8 -4 11 -10z m122 -762 c-3 -8 -6
-5 -6 6 -1 11 2 17 5 13 3 -3 4 -12 1 -19z"/>
<path d="M992 5084 c-13 -20 -21 -42 -18 -49 3 -8 -17 -36 -44 -64 -47 -49
-58 -54 -170 -82 l-45 -11 45 -14 c65 -20 151 -17 212 6 29 11 54 20 55 20 7
0 -32 -63 -46 -72 -16 -11 -19 -35 -24 -168 -4 -85 -9 -177 -13 -205 l-6 -50
41 44 c23 24 43 42 47 39 3 -3 -2 -34 -11 -68 -9 -34 -14 -72 -12 -84 2 -14 6
-7 14 24 l11 45 3 -45 c1 -25 3 -65 4 -90 2 -29 19 -79 46 -139 29 -63 40 -96
32 -98 -7 -2 -10 -10 -8 -16 2 -7 6 -31 9 -54 7 -50 -1 -54 -48 -18 -41 31
-50 31 -71 -2 -15 -22 -17 -39 -11 -101 3 -41 11 -80 16 -87 6 -7 12 -43 14
-81 4 -76 13 -122 28 -141 6 -7 7 -20 4 -29 -3 -9 -3 -21 1 -27 4 -7 8 -28 9
-47 1 -20 15 -65 32 -100 35 -75 54 -139 45 -153 -3 -6 -1 -7 5 -3 6 3 14 -4
18 -16 9 -31 74 -107 96 -114 17 -5 18 -20 16 -187 l-3 -182 52 -150 c29 -82
55 -178 59 -212 5 -47 12 -67 30 -84 l24 -22 0 21 c0 12 4 22 9 22 11 0 16
-16 25 -71 4 -25 13 -38 25 -42 11 -2 29 -24 41 -47 19 -38 24 -42 50 -36 26
5 30 2 40 -30 11 -31 10 -36 -12 -54 -12 -11 -26 -19 -29 -20 -7 0 -7 -1 -14
-115 -3 -49 -8 -101 -11 -115 -5 -24 -6 -24 -20 -6 -14 20 -14 20 -16 0 -5
-73 11 -127 57 -182 44 -53 141 -160 146 -161 9 -1 169 -162 214 -216 22 -25
55 -61 73 -80 18 -19 33 -37 32 -40 -2 -13 50 -65 64 -65 9 0 16 -4 16 -9 0
-15 69 -54 99 -56 14 -1 33 -3 42 -3 9 -1 28 -11 43 -23 25 -20 25 -21 10 -52
-9 -18 -20 -34 -24 -37 -17 -12 -159 -217 -204 -294 -27 -47 -61 -100 -76
-118 l-27 -32 -37 28 c-31 23 -39 26 -52 15 -13 -11 -19 -9 -35 11 -10 14 -25
39 -34 56 -8 17 -21 37 -29 43 -8 6 -12 20 -9 30 3 13 -16 42 -59 91 -98 112
-194 244 -242 333 -41 78 -112 268 -110 294 1 7 -1 11 -5 9 -4 -3 -12 7 -19
22 -12 28 -60 218 -67 265 -7 48 -15 48 -57 5 -22 -23 -50 -47 -62 -54 -19
-10 -71 -40 -154 -89 -19 -11 -53 -35 -77 -52 -24 -18 -49 -33 -54 -33 -11 0
-15 -19 -12 -50 1 -9 -6 -5 -18 10 -15 18 -21 21 -21 9 0 -8 -12 -29 -27 -46
-33 -35 -148 -113 -169 -113 -8 0 -14 -4 -14 -10 0 -5 -17 -17 -38 -26 -33
-15 -77 -36 -197 -98 -22 -12 -42 -24 -45 -28 -3 -3 -17 -10 -33 -13 -15 -4
-25 -11 -22 -15 7 -11 -22 -20 -42 -13 -11 4 -14 3 -9 -5 4 -8 1 -12 -10 -12
-10 0 -14 -3 -11 -6 4 -4 -13 -16 -36 -27 -23 -12 -48 -27 -55 -34 -13 -12
-27 -17 -45 -14 -4 1 -10 -6 -13 -14 -4 -8 -12 -15 -19 -15 -6 0 -19 -8 -28
-18 -15 -17 -17 -59 -17 -395 l0 -377 1414 0 1415 0 -2 35 c-1 19 -4 35 -7 35
-3 0 -6 16 -8 35 -2 41 23 109 38 100 5 -3 10 -1 10 4 0 13 36 51 47 51 18 -1
64 -52 80 -89 18 -42 39 -57 30 -21 -3 13 0 20 9 20 8 0 14 -7 14 -15 0 -8 5
-15 10 -15 14 0 12 -26 -3 -39 -10 -8 -17 -7 -27 2 -10 10 -12 8 -7 -11 3 -12
1 -22 -4 -22 -5 0 -11 -11 -15 -25 -3 -14 -10 -25 -15 -25 -5 0 -9 -4 -9 -10
0 -7 365 -10 1075 -10 l1075 0 0 311 c0 297 -4 349 -30 349 -5 0 -21 12 -37
26 -15 14 -35 23 -44 21 -12 -3 -19 3 -23 19 -7 26 -26 33 -26 9 0 -19 -24
-19 -40 0 -7 8 -18 15 -24 15 -6 0 -25 13 -42 30 -18 16 -44 32 -58 36 -14 3
-26 12 -26 19 0 8 -10 15 -22 17 -13 2 -22 9 -20 16 1 8 -2 11 -8 7 -5 -3 -13
1 -16 9 -3 9 -15 16 -25 16 -10 0 -19 6 -19 13 -1 22 -37 57 -54 51 -10 -4
-16 -1 -16 8 0 8 -16 22 -36 31 -26 13 -34 22 -30 33 4 12 2 15 -9 10 -9 -3
-15 0 -15 9 0 9 -6 12 -16 8 -10 -4 -17 1 -21 16 -3 11 -10 21 -15 21 -5 0
-23 13 -39 29 -16 17 -38 33 -50 36 -12 4 -22 19 -26 36 -5 25 -26 56 -22 32
3 -20 -2 -29 -20 -29 -12 0 -17 5 -13 15 3 9 1 12 -6 7 -7 -4 -12 -1 -12 8 0
8 -11 27 -25 42 -22 23 -33 27 -77 26 -38 -1 -55 4 -64 16 -11 13 -13 14 -14
3 0 -25 -60 40 -60 65 0 26 -16 41 -23 22 -2 -7 -8 -1 -12 14 -4 15 -16 30
-26 33 -11 4 -26 21 -35 38 -9 18 -25 40 -35 50 -16 15 -21 16 -33 4 -8 -7
-16 -29 -19 -48 -28 -189 -188 -629 -248 -679 -3 -3 -19 -25 -34 -50 -15 -25
-49 -72 -75 -105 -26 -33 -68 -91 -93 -130 -73 -112 -197 -248 -197 -216 0 6
-5 11 -11 11 -15 0 -52 43 -124 145 -16 24 -74 92 -129 151 -54 59 -109 124
-121 144 -13 20 -33 44 -46 54 -13 9 -17 14 -9 11 8 -4 6 1 -4 9 -13 10 -16
20 -10 25 15 15 88 74 124 101 18 14 65 50 104 80 39 30 76 58 81 62 88 68
122 92 185 136 92 62 123 92 224 207 121 139 167 235 118 247 -24 7 -43 78
-43 159 0 33 -5 61 -10 65 -5 3 -6 16 -3 30 5 18 1 29 -12 38 -17 13 -17 14 4
27 12 8 22 23 22 35 0 25 24 49 40 39 6 -4 17 -1 25 5 12 10 16 9 21 -5 9 -22
24 -1 24 35 0 14 14 50 31 80 68 122 129 270 143 347 7 43 14 68 15 56 1 -27
21 -41 21 -16 0 11 5 24 11 30 9 9 8 62 -1 208 l-13 196 29 30 c15 16 22 29
15 29 -7 0 -9 5 -5 12 4 7 3 8 -5 4 -6 -4 -9 -11 -6 -16 3 -4 -3 -7 -12 -6
-20 3 -31 36 -13 36 9 0 10 4 2 13 -8 10 -8 24 0 53 6 21 10 49 9 61 -1 11 3
24 8 28 6 3 11 17 11 30 0 34 10 55 26 55 8 0 14 8 14 17 0 9 9 26 20 38 35
38 70 115 70 156 0 46 -38 120 -59 116 -8 -1 -16 4 -18 11 -3 6 0 12 6 12 6 0
11 6 11 14 0 19 27 40 56 43 16 3 33 -5 50 -22 14 -15 28 -25 29 -23 2 2 0 21
-4 43 -4 22 -4 74 -1 115 4 41 5 77 4 79 -6 7 -57 -31 -106 -77 -27 -25 -48
-40 -48 -35 0 6 7 16 15 23 10 8 14 28 13 56 -1 25 5 53 15 68 9 13 19 51 22
83 7 67 22 146 24 121 1 -25 18 -22 32 5 7 12 25 36 40 54 18 21 32 53 40 93
6 33 15 60 19 60 4 0 15 -17 24 -37 l17 -38 -6 35 c-3 19 -9 94 -14 165 -5 81
-16 153 -29 190 -11 33 -23 73 -26 90 l-7 29 28 -28 c15 -16 55 -42 88 -58
l60 -31 -34 34 c-42 42 -78 118 -92 195 -6 32 -25 83 -42 112 l-32 52 -1535 0
-1535 0 -23 -36z m8 -26 c-13 -13 -19 -16 -15 -8 14 25 28 41 32 36 3 -3 -5
-15 -17 -28z m2070 -95 c0 -8 -5 -24 -11 -36 -9 -16 -9 -22 0 -25 6 -2 11 -11
11 -19 0 -9 -3 -13 -7 -10 -4 4 -13 -12 -21 -35 -7 -24 -33 -63 -55 -87 -23
-24 -36 -40 -29 -36 19 10 82 14 82 4 0 -4 31 8 69 27 38 19 76 34 84 34 21 0
74 28 155 82 41 27 81 48 89 46 9 -2 21 -21 28 -43 15 -49 74 -173 86 -181 5
-3 9 -22 9 -42 0 -21 6 -46 13 -57 16 -24 57 -136 57 -157 0 -8 9 -33 20 -56
11 -22 20 -46 20 -53 0 -9 3 -9 14 0 12 10 13 8 9 -8 -3 -12 -1 -21 4 -21 6 0
21 -28 33 -62 12 -35 26 -65 31 -68 15 -10 59 -139 59 -173 0 -18 4 -37 9 -42
5 -6 12 -20 15 -32 6 -18 2 -22 -24 -28 -24 -5 -35 -2 -49 14 -34 39 -107 58
-313 79 -51 5 -65 10 -59 20 12 19 111 28 122 11 6 -10 9 -10 9 -2 0 9 17 11
62 8 71 -6 100 -13 110 -29 16 -24 7 16 -11 52 -35 68 -113 121 -211 143 -69
16 -310 -19 -455 -66 -22 -7 -71 -21 -108 -31 -66 -19 -124 -54 -110 -68 4 -4
0 -4 -9 -1 -11 5 -26 -2 -42 -20 -14 -15 -30 -24 -35 -20 -7 4 -11 -7 -11 -30
0 -20 4 -34 9 -30 5 3 12 1 16 -5 3 -5 12 -10 18 -10 8 0 8 3 -1 9 -11 7 -11
9 2 14 9 4 16 2 16 -3 0 -6 3 -9 8 -9 24 4 21 -4 -9 -24 -19 -12 -41 -36 -49
-53 -15 -31 -15 -31 -50 -16 -25 10 -63 13 -137 10 -57 -2 -103 0 -103 4 0 5
6 8 13 9 9 0 9 2 0 6 -27 10 19 36 75 42 53 6 55 7 24 14 -18 4 -61 27 -96 52
-35 25 -67 45 -70 45 -4 0 -16 9 -28 20 -12 11 -37 25 -57 31 -20 6 -59 21
-86 34 -28 12 -77 31 -110 41 -33 10 -63 22 -66 27 -3 4 -10 7 -15 6 -13 -3
-64 10 -101 27 -17 8 -36 14 -42 14 -6 0 -11 4 -11 10 0 16 60 78 98 102 20
12 44 28 52 35 27 22 174 128 240 174 71 49 71 48 152 113 31 25 60 46 63 46
4 0 34 25 66 55 59 54 190 145 210 145 5 0 24 8 42 17 59 31 247 91 267 86 11
-3 20 -12 20 -20z m-1182 -1020 c-10 -2 -26 -2 -35 0 -10 3 -2 5 17 5 19 0 27
-2 18 -5z m1731 -24 c83 -21 99 -32 103 -69 3 -25 2 -25 -72 -23 -41 0 -106 9
-145 18 -38 9 -135 22 -214 30 -101 10 -149 19 -160 29 -21 22 -12 26 66 36
104 13 333 2 422 -21z m-2239 -14 c0 -10 -10 -15 -27 -15 l-28 1 25 14 c31 18
30 18 30 0z m671 5 c43 -24 15 -30 -137 -30 -135 0 -155 2 -144 14 6 8 21 17
33 19 46 9 229 6 248 -3z m775 -49 c-4 -5 7 -12 24 -16 35 -8 36 -13 10 -88
-23 -66 -25 -81 -7 -71 8 6 8 3 -1 -9 -12 -14 -10 -17 15 -22 15 -4 36 -10 45
-16 10 -5 25 -9 35 -9 9 0 30 -4 47 -10 175 -55 164 -53 294 -47 69 3 129 10
134 15 5 5 25 5 48 -1 44 -12 56 -7 42 19 -7 13 -3 23 22 45 60 52 116 48 96
-7 -11 -28 10 -49 41 -41 19 5 20 3 15 -28 -6 -32 -63 -164 -75 -175 -3 -3 -7
-12 -9 -20 -2 -8 -8 -16 -13 -18 -5 -2 -9 -10 -9 -18 0 -7 -12 -21 -27 -31
-16 -10 -30 -20 -33 -23 -12 -13 -99 -50 -142 -60 -29 -8 -95 -10 -175 -8
-238 9 -291 45 -382 263 -49 116 -52 129 -37 140 23 18 20 44 -8 56 -52 24
-38 134 22 171 33 20 35 20 28 9z m-164 -77 c31 -16 42 -36 53 -101 8 -48 -10
-60 -33 -22 -9 14 -17 18 -23 12 -13 -13 29 -126 43 -116 8 4 9 0 5 -11 -4 -9
2 -36 12 -59 40 -87 79 -184 101 -247 12 -36 33 -88 47 -117 18 -38 22 -61 18
-86 -6 -33 -8 -34 -40 -27 -18 4 -38 11 -44 14 -27 17 -76 15 -109 -4 -50 -30
-183 -29 -228 2 -18 13 -38 33 -43 46 -15 32 -13 117 4 181 8 31 17 131 21
230 7 188 13 214 60 231 34 13 20 32 -19 28 -26 -2 -33 1 -35 18 -3 20 20 37
63 48 32 8 116 -4 147 -20z m1038 13 c-14 -7 -36 -11 -50 -8 -23 5 -22 6 10
12 57 10 67 9 40 -4z m-1551 -20 c15 -19 -6 -45 -41 -51 -16 -3 -28 -3 -28 -2
0 2 5 17 11 35 12 33 38 41 58 18z m961 -30 l22 -38 -38 7 c-22 4 -41 11 -42
15 -2 5 -8 7 -13 3 -5 -3 -9 2 -9 10 0 9 7 16 16 16 8 0 13 4 9 9 -4 7 24 22
31 17 0 -1 11 -18 24 -39z m324 28 c10 -8 16 -20 13 -27 -5 -14 -104 -44 -113
-35 -3 2 3 21 12 41 19 40 53 48 88 21z m296 11 c0 -3 -4 -8 -10 -11 -5 -3
-10 -1 -10 4 0 6 5 11 10 11 6 0 10 -2 10 -4z m-1899 -43 l20 -32 -33 10 c-18
5 -34 9 -35 9 -2 0 -3 7 -3 15 0 8 5 15 11 15 5 0 7 5 3 11 -4 7 -2 10 5 8 7
-3 21 -19 32 -36z m2008 -7 c-2 -97 -32 -369 -50 -451 -17 -77 -72 -238 -86
-253 -7 -7 -13 -22 -13 -33 0 -10 -4 -19 -10 -19 -5 0 -10 -7 -10 -15 0 -8 -4
-15 -10 -15 -5 0 -10 -7 -10 -15 0 -8 -5 -15 -11 -15 -6 0 -9 7 -5 15 6 17 -9
21 -19 5 -4 -6 -11 -8 -16 -5 -11 7 -12 26 -1 24 37 -6 52 2 51 29 -2 23 -2
24 -6 4 -2 -12 -10 -22 -16 -21 -34 4 -48 -5 -77 -51 -18 -27 -39 -50 -49 -50
-14 0 -14 2 -1 10 12 8 13 13 3 30 -7 11 -13 27 -13 35 0 22 18 18 22 -5 3
-18 4 -18 15 5 6 14 8 23 3 20 -4 -2 -7 13 -6 34 0 29 4 37 15 33 11 -4 12 1
7 21 -10 40 4 107 22 107 12 0 13 9 8 51 -6 44 -4 55 17 82 42 55 83 147 136
309 52 155 62 172 99 160 6 -2 12 -14 11 -26z m-1784 -57 c-56 -11 -95 -11
-95 0 0 13 25 17 84 12 l51 -4 -40 -8z m873 14 c-10 -2 -26 -2 -35 0 -10 3 -2
5 17 5 19 0 27 -2 18 -5z m167 -3 c-3 -5 -12 -10 -18 -10 -7 0 -6 4 3 10 19
12 23 12 15 0z m380 -10 c-19 -21 -25 -22 -170 -18 -82 3 -161 10 -175 17
l-25 11 28 -3 c15 -3 27 -1 27 2 0 3 75 7 167 9 l167 3 -19 -21z m-718 -138
l15 -37 -21 19 c-12 11 -19 26 -17 33 3 7 1 13 -4 13 -6 0 -10 10 -10 23 1 20
2 20 11 4 5 -9 17 -34 26 -55z m-707 22 c0 -29 -138 -194 -163 -194 -7 0 -6
-4 3 -10 23 -15 67 -12 118 9 26 11 61 22 79 25 31 5 32 4 23 -20 -13 -34 -13
-41 2 -26 20 20 27 13 18 -19 -5 -18 -19 -38 -30 -46 -11 -8 -18 -18 -15 -22
6 -11 -39 -20 -130 -27 -112 -10 -325 40 -325 76 0 6 -4 9 -10 5 -5 -3 -17 7
-27 22 -10 15 -24 35 -32 43 -9 10 -10 15 -2 18 6 2 11 12 11 23 0 15 21 30
81 59 85 41 137 55 284 75 119 16 115 16 115 9z m-511 -124 c0 -10 -3 -8 -9 5
-12 27 -12 43 0 25 5 -8 9 -22 9 -30z m21 -20 c0 -5 -5 -10 -11 -10 -5 0 -7 5
-4 10 3 6 8 10 11 10 2 0 4 -4 4 -10z m430 -35 c0 -2 -10 -10 -22 -16 -21 -11
-22 -11 -9 4 13 16 31 23 31 12z m1877 -97 c-3 -8 -6 -5 -6 6 -1 11 2 17 5 13
3 -3 4 -12 1 -19z m-863 -63 c114 -33 344 -36 444 -6 24 7 37 7 46 -2 17 -16
-74 -93 -129 -109 -22 -7 -42 -15 -45 -19 -3 -4 -21 -12 -40 -17 l-35 -10 32
-1 c30 -1 58 -20 31 -22 -16 -1 22 -17 42 -18 13 -1 13 0 0 9 -8 5 -10 10 -5
10 6 0 23 -13 38 -30 32 -33 71 -39 85 -13 8 14 11 13 17 -7 4 -12 3 -25 -2
-29 -5 -3 -15 -33 -22 -66 -12 -56 -41 -122 -94 -219 -24 -43 -37 -59 -100
-123 l-41 -42 -56 57 c-42 42 -84 71 -163 112 -59 29 -107 58 -107 62 0 4 -5
8 -11 8 -13 0 -100 67 -112 87 -4 7 -14 13 -21 13 -8 0 -16 7 -20 15 -4 11 2
15 27 15 71 0 134 74 152 177 5 31 11 41 23 38 89 -16 100 -16 117 1 14 14 18
15 25 3 5 -7 12 -10 15 -7 11 11 -5 28 -24 28 -57 0 -122 51 -167 129 l-22 39
36 -24 c19 -14 58 -31 86 -39z m-1349 26 c121 -55 301 -65 470 -26 l30 7 -35
-27 c-125 -96 -300 -121 -399 -57 -22 14 -38 28 -36 30 2 3 -7 13 -20 24 -14
11 -23 24 -20 29 4 5 -2 6 -11 2 -13 -5 -15 -3 -9 7 6 10 4 12 -9 7 -11 -4
-15 -3 -10 4 4 6 0 16 -7 21 -17 12 -7 8 56 -21z m432 -243 c-3 -46 -12 -96
-20 -112 -17 -32 -105 -126 -118 -126 -30 0 -98 136 -106 214 l-5 52 63 17
c92 24 141 35 168 36 24 1 24 1 18 -81z m1503 -112 c0 -7 -12 -26 -27 -42 -14
-16 -24 -24 -21 -19 2 6 11 25 18 43 15 33 30 43 30 18z m-820 -435 c14 -3 34
-11 45 -18 16 -9 17 -13 6 -27 -15 -18 -116 -22 -141 -6 -13 8 -12 10 3 10 9
0 17 5 17 10 0 6 -7 10 -15 10 -8 0 -15 7 -15 15 0 16 50 19 100 6z m249 -56
c22 -13 42 -29 46 -34 7 -13 -34 -71 -50 -71 -7 0 -20 -9 -30 -20 -23 -26 -43
-25 -76 3 -23 19 -59 75 -59 91 0 16 73 48 123 55 4 1 25 -10 46 -24z m-433
-5 c8 0 11 -6 7 -15 -3 -9 -11 -14 -17 -12 -6 2 -18 1 -26 -4 -10 -4 -24 -1
-38 9 l-22 17 32 1 c18 1 34 8 37 15 3 11 5 11 9 2 2 -7 10 -13 18 -13z m971
-272 c-3 -8 -6 -5 -6 6 -1 11 2 17 5 13 3 -3 4 -12 1 -19z m-659 -74 c-2 -16
-20 -42 -49 -69 -46 -43 -48 -44 -86 -33 -49 13 -59 22 -67 59 -4 23 -10 30
-22 25 -11 -4 -14 -1 -12 11 2 14 11 17 38 15 19 -2 46 1 60 7 14 5 51 10 82
10 56 1 58 0 56 -25z m-938 -1738 c0 -2 -9 -2 -20 1 -11 3 -20 9 -20 15 0 5 9
4 20 -2 11 -6 20 -12 20 -14z"/>
<path d="M3625 3479 c-4 -6 -5 -12 -2 -15 2 -3 7 2 10 11 7 17 1 20 -8 4z"/>
<path d="M2550 3719 c0 -5 5 -7 10 -4 6 3 10 8 10 11 0 2 -4 4 -10 4 -5 0 -10
-5 -10 -11z"/>
<path d="M1620 3380 c0 -5 5 -10 10 -10 6 0 10 5 10 10 0 6 -4 10 -10 10 -5 0
-10 -4 -10 -10z"/>
<path d="M1853 3333 c9 -2 23 -2 30 0 6 3 -1 5 -18 5 -16 0 -22 -2 -12 -5z"/>
<path d="M3180 3083 c8 -3 18 -11 22 -17 4 -6 10 -7 15 -3 9 10 -16 27 -37 26
-13 -1 -13 -1 0 -6z"/>
<path d="M5108 5093 c-1 -16 -2 -35 -4 -43 -1 -8 -2 -21 -3 -29 -2 -22 -15 -4
-27 37 l-12 37 -1 -37 c-1 -20 -5 -40 -11 -43 -5 -3 -10 -22 -10 -42 0 -20 3
-33 7 -29 4 4 8 15 8 23 0 9 5 18 11 20 15 5 25 -35 12 -43 -5 -4 -7 -19 -4
-35 6 -30 -7 -40 -18 -14 -10 27 -29 17 -22 -12 5 -17 3 -29 -6 -35 -10 -8
-10 -11 0 -15 13 -5 17 -33 4 -33 -4 0 -12 4 -18 8 -5 5 -20 6 -34 2 -22 -7
-21 -8 18 -15 50 -9 55 -30 10 -40 l-33 -7 35 -13 c27 -10 30 -14 13 -14 -28
-1 -38 -18 -23 -36 10 -12 10 -18 0 -30 -8 -10 -10 -29 -6 -55 3 -22 3 -40 -1
-40 -13 0 -8 -89 5 -102 15 -15 15 -31 0 -46 -6 -6 -13 -27 -15 -46 -3 -33 -1
-35 29 -39 33 -4 33 -4 -4 -5 -42 -2 -45 -6 -23 -28 16 -16 21 -74 6 -74 -5 0
-14 -13 -21 -30 -7 -16 -19 -30 -26 -30 -18 0 -18 -14 1 -30 20 -16 19 -46 -1
-54 -8 -3 -12 -11 -9 -17 4 -6 13 -8 21 -5 8 3 14 -1 14 -9 0 -7 -10 -15 -22
-17 -19 -2 -22 -8 -20 -33 2 -16 8 -31 12 -33 12 -4 -1 -115 -14 -124 -6 -5
-1 -8 12 -8 13 0 22 -6 22 -15 0 -8 -9 -15 -20 -15 -25 0 -26 -16 -2 -29 10
-6 12 -11 4 -11 -7 0 -10 -5 -7 -10 4 -6 11 -8 16 -5 15 10 10 -12 -6 -25 -11
-9 -12 -17 -5 -30 6 -10 10 -53 10 -94 0 -44 4 -76 10 -76 6 0 10 -12 9 -27 0
-24 -2 -25 -8 -9 -5 14 -10 16 -15 8 -4 -7 -4 -18 1 -24 10 -17 10 -19 12 -78
1 -33 5 -49 13 -48 16 4 23 -31 9 -45 -7 -7 -13 -3 -21 14 -10 23 -10 22 -7
-8 2 -18 0 -30 -4 -27 -10 6 -23 -15 -27 -43 -2 -15 3 -23 12 -23 9 0 13 6 10
15 -3 8 -2 20 2 27 10 16 23 -45 23 -114 1 -26 5 -49 10 -52 15 -10 20 -46 6
-46 -8 0 -15 8 -17 18 -2 9 -8 -16 -12 -55 -4 -40 -4 -77 -1 -83 10 -17 25
-11 18 7 -4 11 -3 14 5 9 7 -4 12 -1 12 8 0 9 5 16 11 16 13 0 2 -73 -12 -78
-5 -2 -9 -12 -9 -23 0 -10 -6 -19 -14 -19 -10 0 -13 -15 -12 -60 1 -50 4 -60
19 -60 13 0 17 9 17 41 0 22 -4 38 -9 35 -5 -4 -7 3 -4 14 7 25 28 21 29 -6 1
-10 2 -34 3 -51 1 -24 6 -33 19 -35 9 0 -3 -4 -28 -7 l-45 -6 3 -44 c2 -34 -2
-49 -19 -67 -12 -13 -19 -27 -16 -31 9 -8 35 25 43 55 5 19 12 22 53 21 25 -1
38 -3 29 -6 -21 -5 -43 -64 -28 -73 7 -4 8 -20 3 -46 -12 -55 -2 -108 20 -112
16 -3 17 -1 5 17 -10 17 -10 25 0 41 6 11 12 29 12 40 0 11 5 20 10 20 6 0 10
-13 10 -29 0 -16 6 -31 15 -35 23 -8 18 -22 -18 -59 -19 -19 -36 -48 -40 -68
l-6 -34 15 28 c17 31 48 36 63 10 9 -15 10 -13 11 13 0 20 -6 34 -16 38 -14 5
-14 8 -1 21 11 10 15 36 15 84 l0 70 -41 4 -42 4 43 1 42 2 0 1275 c-1 701 -3
1275 -5 1275 -3 0 -6 -12 -7 -27z m-38 -303 c0 -5 -2 -10 -4 -10 -3 0 -8 5
-11 10 -3 6 -1 10 4 10 6 0 11 -4 11 -10z m0 -60 c0 -5 -5 -10 -11 -10 -5 0
-7 5 -4 10 3 6 8 10 11 10 2 0 4 -4 4 -10z m-10 -60 c0 -5 -5 -10 -11 -10 -5
0 -7 5 -4 10 3 6 8 10 11 10 2 0 4 -4 4 -10z m-93 -1062 c-3 -7 -5 -2 -5 12 0
14 2 19 5 13 2 -7 2 -19 0 -25z m15 -230 c-9 -20 -11 -18 -11 22 0 40 2 42 11
23 8 -17 8 -29 0 -45z m28 -378 c0 -5 -9 -10 -20 -10 -11 0 -20 5 -20 10 0 6
9 10 20 10 11 0 20 -4 20 -10z m37 -172 c-3 -7 -5 -2 -5 12 0 14 2 19 5 13 2
-7 2 -19 0 -25z m8 -67 c3 -5 1 -12 -5 -16 -5 -3 -10 1 -10 9 0 18 6 21 15 7z
m-15 -91 c0 -5 -18 -10 -40 -10 -22 0 -40 5 -40 10 0 6 18 10 40 10 22 0 40
-4 40 -10z"/>
<path d="M371 5074 c0 -11 3 -14 6 -6 3 7 2 16 -1 19 -3 4 -6 -2 -5 -13z"/>
<path d="M352 4695 c6 -14 15 -25 19 -25 5 0 8 11 7 25 -2 16 -8 25 -20 25
-15 0 -16 -3 -6 -25z"/>
<path d="M4960 4440 c0 -5 5 -10 10 -10 6 0 10 5 10 10 0 6 -4 10 -10 10 -5 0
-10 -4 -10 -10z"/>
<path d="M4960 4255 c0 -8 4 -15 10 -15 5 0 7 7 4 15 -4 8 -8 15 -10 15 -2 0
-4 -7 -4 -15z"/>
<path d="M4915 3930 c-3 -5 -1 -10 4 -10 6 0 11 5 11 10 0 6 -2 10 -4 10 -3 0
-8 -4 -11 -10z"/>
<path d="M480 3490 c0 -5 5 -10 10 -10 6 0 10 5 10 10 0 6 -4 10 -10 10 -5 0
-10 -4 -10 -10z"/>
<path d="M4900 3324 c0 -22 2 -24 14 -14 8 6 12 18 9 26 -9 23 -23 16 -23 -12z"/>
<path d="M4945 3188 c-12 -40 -11 -68 1 -68 10 0 14 13 14 40 0 39 -7 52 -15
28z"/>
<path d="M4920 3020 c0 -5 7 -10 15 -10 8 0 15 5 15 10 0 6 -7 10 -15 10 -8 0
-15 -4 -15 -10z"/>
<path d="M4917 2894 c-7 -7 14 -44 25 -44 5 0 8 6 8 14 0 16 -24 38 -33 30z"/>
<path d="M4876 2865 c4 -8 8 -15 10 -15 2 0 4 7 4 15 0 8 -4 15 -10 15 -5 0
-7 -7 -4 -15z"/>
<path d="M4900 2796 c0 -22 3 -27 11 -19 8 8 8 16 0 30 -9 16 -10 14 -11 -11z"/>
<path d="M4850 2793 c1 -5 8 -19 16 -33 8 -14 13 -17 10 -7 -3 10 -6 25 -6 33
0 8 -4 14 -10 14 -5 0 -10 -3 -10 -7z"/>
<path d="M4900 2725 c0 -14 5 -25 10 -25 6 0 10 11 10 25 0 14 -4 25 -10 25
-5 0 -10 -11 -10 -25z"/>
<path d="M4900 2648 c0 -16 5 -28 10 -28 13 0 13 20 0 40 -8 12 -10 9 -10 -12z"/>
<path d="M4860 2629 c0 -5 5 -7 10 -4 6 3 10 8 10 11 0 2 -4 4 -10 4 -5 0 -10
-5 -10 -11z"/>
<path d="M4875 2570 c-3 -5 -1 -10 4 -10 6 0 11 5 11 10 0 6 -2 10 -4 10 -3 0
-8 -4 -11 -10z"/>
<path d="M4980 2520 c0 -22 -4 -40 -10 -40 -5 0 -10 5 -10 12 0 6 -2 9 -5 7
-2 -3 -1 -18 4 -35 7 -28 8 -28 15 -6 4 12 12 22 17 22 5 0 9 18 9 40 0 22 -4
40 -10 40 -5 0 -10 -18 -10 -40z"/>
<path d="M4902 2520 c0 -14 2 -19 5 -12 2 6 2 18 0 25 -3 6 -5 1 -5 -13z"/>
<path d="M4910 2440 c0 -5 5 -10 10 -10 6 0 10 5 10 10 0 6 -4 10 -10 10 -5 0
-10 -4 -10 -10z"/>
<path d="M695 2370 c3 -5 10 -10 16 -10 5 0 9 5 9 10 0 6 -7 10 -16 10 -8 0
-12 -4 -9 -10z"/>
<path d="M5092 2220 c0 -14 2 -19 5 -12 2 6 2 18 0 25 -3 6 -5 1 -5 -13z"/>
<path d="M720 1930 c0 -5 5 -10 11 -10 5 0 7 5 4 10 -3 6 -8 10 -11 10 -2 0
-4 -4 -4 -10z"/>
<path d="M550 1510 c6 -11 12 -20 14 -20 2 0 2 9 -1 20 -3 11 -9 20 -15 20 -5
0 -4 -9 2 -20z"/>
<path d="M515 1490 c-3 -5 -1 -10 4 -10 6 0 11 5 11 10 0 6 -2 10 -4 10 -3 0
-8 -4 -11 -10z"/>
<path d="M1911 1144 c0 -11 3 -14 6 -6 3 7 2 16 -1 19 -3 4 -6 -2 -5 -13z"/>
</g>
</svg>
